# xmcd
#
# Track frame offsets: 
#        150
#        18804
#        38636
#        58167
#        83614
#        101883
#        121737
#        139696
#
# Disc length: 2146 seconds
#
# Revision: 1
# Processed by: cddbd v1.4PL0 Copyright (c) Steve Scherf et al.
# Submitted via: ExactAudioCopy v0.90b4
#
DISCID=5c086008
DTITLE=Donnie Ray - Are Your Ready For Me
DYEAR=2003
DGENRE=Blues
TTITLE0=Never Meant To Be Alone
TTITLE1=Come Back
TTITLE2=One Slip
TTITLE3=From Now On
TTITLE4=I'm In The Mood
TTITLE5=Let's Keep Love Together
TTITLE6=I've Been Cheating
TTITLE7=You Put A Spell On Me
EXTD=
EXTT0=
EXTT1=
EXTT2=
EXTT3=
EXTT4=
EXTT5=
EXTT6=
EXTT7=
PLAYORDER=
